# xmcd
#
# Track frame offsets:
#	150
#	8060
#	25950
#	49210
#	72335
#	86885
#	100812
#	120555
#	136297
#	159452
#	180247
#	194777
#	213435
#	231672
# Disc length: 3423 seconds
# Revision: 1
# Processed by: cddbd v1.5.2PL0 Copyright (c) Steve Scherf et al.
#
# Submitted via: libkcddb 0.31
#
DISCID=c60d5d0e
DTITLE=Boi de Morros - Paraíso da Criação
DYEAR=1900
DGENRE=
TTITLE0=1° Ato
TTITLE1=Concentração
TTITLE2=Paraiso da criação
TTITLE3=Ressôo no universo
TTITLE4=Lá vai meu boi
TTITLE5=Chico e Catirina
TTITLE6=Noites lindas
TTITLE7=Galopando eu vou
TTITLE8=Meu pai Tupã
TTITLE9=Creio em Deus Pai
TTITLE10=Ecoa no universo
TTITLE11=Desejo
TTITLE12=Louvação
TTITLE13=Pout-porri (natureza, cidade da areia, Catita)
EXTD=Direção geral - José Carlos Muniz Lobato
EXTT0=
EXTT1=
EXTT2=
EXTT3=
EXTT4=
EXTT5=
EXTT6=
EXTT7=
EXTT8=
EXTT9=
EXTT10=
EXTT11=
EXTT12=
EXTT13=
PLAYORDER=
